<?xml version="1.0" encoding="utf-8"?>
<!-- Generator: Adobe Illustrator 24.0.1, SVG Export Plug-In . SVG Version: 6.00 Build 0)  -->
<svg version="1.1" id="Layer_1" xmlns="http://www.w3.org/2000/svg" xmlns:xlink="http://www.w3.org/1999/xlink" x="0px" y="0px"
	 viewBox="0 0 20 20" style="enable-background:new 0 0 20 20;" xml:space="preserve">
<style type="text/css">
	.st0{fill:#0000FF;}
</style>
<g>
	<path class="st0" d="M17.2,2.9c0.4,0.4,0.8,0.9,1.1,1.4c0.3,0.5,0.6,1.1,0.8,1.7c0.2,0.6,0.4,1.2,0.5,1.9s0.2,1.4,0.2,2.2v1.3
		c0,0.4-0.1,0.9-0.3,1.3c-0.2,0.4-0.4,0.7-0.7,1c-0.3,0.3-0.6,0.5-1,0.7s-0.8,0.3-1.3,0.3c-0.6,0-1.1-0.2-1.6-0.5S14,13.5,13.7,13
		c0,0.1-0.1,0.1-0.1,0.2l-0.1,0.1c-0.4,0.4-0.9,0.8-1.5,1s-1.2,0.3-1.9,0.3s-1.3-0.1-1.9-0.3s-1.1-0.6-1.5-1S6,12.4,5.9,11.9
		c-0.2-0.5-0.3-1.1-0.3-1.8c0-0.6,0.1-1.2,0.3-1.8c0.2-0.5,0.5-1,0.8-1.4c0.4-0.4,0.9-0.8,1.5-1C8.7,5.6,9.3,5.5,10,5.5
		s1.3,0.1,1.8,0.3c0.5,0.2,1,0.5,1.4,0.9V6.1c0-0.2,0.1-0.3,0.2-0.5c0.1-0.1,0.3-0.2,0.5-0.2s0.3,0.1,0.5,0.2
		c0.1,0.1,0.2,0.3,0.2,0.5v5.1c0,0.5,0.2,1,0.6,1.4c0.4,0.4,0.8,0.6,1.4,0.6c0.5,0,1-0.2,1.4-0.6c0.4-0.4,0.6-0.8,0.6-1.4V10
		c0-0.7,0-1.3-0.1-1.9s-0.2-1.2-0.4-1.7c-0.2-0.5-0.4-1-0.7-1.4s-0.6-0.8-0.9-1.2c-0.4-0.4-0.7-0.7-1.2-0.9
		c-0.4-0.3-0.9-0.5-1.4-0.7s-1.1-0.3-1.7-0.4c-0.6-0.1-1.2-0.1-1.9-0.1S9,1.7,8.4,1.8C7.5,1.9,6.9,2,6.4,2.2S5.4,2.6,5,2.8
		c-0.5,0.3-0.9,0.6-1.2,1C3.4,4.1,3.1,4.5,2.9,5C2.6,5.4,2.4,5.9,2.2,6.4S1.9,7.5,1.8,8.1C1.7,8.7,1.6,9.3,1.6,10s0,1.3,0.1,1.9
		c0.1,0.6,0.2,1.2,0.4,1.7s0.4,1,0.7,1.4s0.6,0.8,0.9,1.2c0.4,0.4,0.8,0.7,1.2,0.9c0.4,0.3,0.9,0.5,1.4,0.7s1.1,0.3,1.7,0.4
		s1.2,0.1,1.9,0.1c0.6,0,1.3,0,1.8-0.1c0.6-0.1,1.1-0.2,1.6-0.4c0.5-0.2,1-0.4,1.4-0.6s0.8-0.5,1.2-0.8c0.1-0.1,0.3-0.2,0.5-0.2
		s0.3,0.1,0.4,0.2s0.2,0.3,0.2,0.5s-0.1,0.3-0.2,0.4c-0.4,0.4-0.9,0.7-1.4,1s-1,0.5-1.6,0.7s-1.2,0.3-1.8,0.4
		c-0.7,0.1-1.3,0.1-2.1,0.1c-0.8,0-1.5-0.1-2.2-0.2S6.4,19,5.8,18.8S4.7,18.3,4.1,18s-1-0.7-1.4-1.1S1.9,16,1.6,15.5
		S1,14.4,0.8,13.8c-0.2-0.6-0.4-1.2-0.5-1.9s-0.2-1.4-0.2-2.2s0.1-1.5,0.2-2.2s0.5-1,0.7-1.6s0.5-1.1,0.8-1.7c0.3-0.5,0.7-1,1.1-1.4
		S3.8,2,4.3,1.7s1-0.5,1.6-0.7s1.2-0.4,1.9-0.5S9.3,0.3,10,0.3c0.8,0,1.5,0.1,2.2,0.2s1.3,0.3,1.9,0.5s1.2,0.5,1.7,0.8
		S16.7,2.4,17.2,2.9z M10,13.2c0.5,0,1-0.1,1.4-0.2c0.4-0.2,0.8-0.4,1-0.7c0.3-0.3,0.5-0.6,0.6-1s0.2-0.8,0.2-1.3s0-0.9-0.2-1.3
		c-0.1-0.4-0.3-0.7-0.6-1s-0.6-0.5-1-0.7C11,6.9,10.5,6.8,10,6.8S9,6.9,8.6,7c-0.4,0.2-0.8,0.4-1,0.7C7.3,8,7.1,8.3,7,8.7
		C6.9,9.1,6.8,9.5,6.8,10s0.1,0.9,0.2,1.3s0.3,0.7,0.6,1c0.3,0.3,0.6,0.5,1,0.7C9,13.1,9.5,13.2,10,13.2z"/>
</g>
</svg>
