<?xml version="1.0" encoding="utf-8"?>
<!-- Generator: Adobe Illustrator 16.0.0, SVG Export Plug-In . SVG Version: 6.00 Build 0)  -->
<!DOCTYPE svg PUBLIC "-//W3C//DTD SVG 1.1//EN" "http://www.w3.org/Graphics/SVG/1.1/DTD/svg11.dtd">
<svg version="1.1" id="Layer_1" xmlns="http://www.w3.org/2000/svg" xmlns:xlink="http://www.w3.org/1999/xlink" x="0px" y="0px"
	 width="57px" height="57px" viewBox="0 0 57 57" enable-background="new 0 0 57 57" xml:space="preserve">
<g>
	<rect x="15" y="14" fill="#FFFFFF" width="28" height="29"/>
	<g>
		<path d="M28.5,56C13.336,56,1,43.663,1,28.5C1,13.336,13.336,1,28.5,1C43.663,1,56,13.336,56,28.5C56,43.663,43.663,56,28.5,56z
			 M19,41.618L44.236,29L19,16.382V41.618z"/>
		<path fill="#FFFFFF" d="M28.5,2C43.112,2,55,13.888,55,28.5S43.112,55,28.5,55S2,43.112,2,28.5S13.888,2,28.5,2 M18,43.236
			l2.895-1.447l22-11L46.472,29l-3.577-1.789l-22-11L18,14.764V18v22V43.236 M28.5,0C12.76,0,0,12.76,0,28.5S12.76,57,28.5,57
			S57,44.24,57,28.5S44.24,0,28.5,0L28.5,0z M20,40V18l22,11L20,40L20,40z"/>
	</g>
</g>
</svg>
