<?xml version="1.0" encoding="utf-8"?>
<!-- Generator: Adobe Illustrator 16.0.0, SVG Export Plug-In . SVG Version: 6.00 Build 0)  -->
<!DOCTYPE svg PUBLIC "-//W3C//DTD SVG 1.1//EN" "http://www.w3.org/Graphics/SVG/1.1/DTD/svg11.dtd">
<svg version="1.1" id="Capa_1" xmlns="http://www.w3.org/2000/svg" xmlns:xlink="http://www.w3.org/1999/xlink" x="0px" y="0px"
	 width="62px" height="62px" viewBox="170.497 170.497 62 62" enable-background="new 170.497 170.497 62 62" xml:space="preserve">
<rect x="170.497" y="170.497" opacity="0.2" fill="#5D5D5D" width="62" height="62"/>
<g>
	<g>
		<path fill="#FFFFFF" d="M172.997,228.997h25.455v-25.455h-25.455V228.997z M178.087,208.634l15.273-0.001v15.233h-15.273V208.634z
			"/>
		<rect x="183.179" y="213.724" fill="#FFFFFF" width="5.091" height="5.092"/>
		<rect x="213.724" y="223.906" fill="#FFFFFF" width="5.092" height="5.091"/>
		<rect x="223.905" y="223.906" fill="#FFFFFF" width="5.092" height="5.091"/>
		<polygon fill="#FFFFFF" points="223.906,208.633 218.815,208.633 218.815,203.542 203.542,203.542 203.542,228.997 
			208.634,228.997 208.634,213.724 213.724,213.724 213.724,218.815 228.997,218.815 228.997,203.542 228.997,203.542 
			223.906,203.542 		"/>
		<path fill="#FFFFFF" d="M172.997,198.452h25.455v-25.455h-25.455V198.452z M178.087,178.087h15.273v15.273h-15.273V178.087z"/>
		<rect x="183.179" y="183.179" fill="#FFFFFF" width="5.091" height="5.091"/>
		<path fill="#FFFFFF" d="M203.542,172.997v25.455h25.455v-25.455H203.542z M223.906,193.36h-15.272v-15.273h15.272V193.36z"/>
		<rect x="213.724" y="183.179" fill="#FFFFFF" width="5.092" height="5.091"/>
	</g>
</g>
</svg>
