<?xml version="1.0" encoding="utf-8"?>
<!-- Generator: Adobe Illustrator 16.0.0, SVG Export Plug-In . SVG Version: 6.00 Build 0)  -->
<!DOCTYPE svg PUBLIC "-//W3C//DTD SVG 1.1//EN" "http://www.w3.org/Graphics/SVG/1.1/DTD/svg11.dtd">
<svg version="1.1" id="Layer_1" xmlns="http://www.w3.org/2000/svg" xmlns:xlink="http://www.w3.org/1999/xlink" x="0px" y="0px"
	 width="720px" height="720px" viewBox="0 0 720 720" enable-background="new 0 0 720 720" xml:space="preserve">
<g>
	<defs>
		<rect id="SVGID_1_" x="52.434" y="144.334" width="623.138" height="467.352"/>
	</defs>
	<clipPath id="SVGID_2_">
		<use xlink:href="#SVGID_1_"  overflow="visible"/>
	</clipPath>
	<g clip-path="url(#SVGID_2_)">
		<defs>
			<rect id="SVGID_3_" x="52.434" y="144.334" width="623.138" height="467.352"/>
		</defs>
		<clipPath id="SVGID_4_">
			<use xlink:href="#SVGID_3_"  overflow="visible"/>
		</clipPath>
		<path clip-path="url(#SVGID_4_)" fill="#EE2A7B" d="M112.395,443.269h-2.555v53.469c0,4.014,2.372,6.204,7.117,6.204h7.481v18.432
			c-7.847,0.73-16.423,0.73-25.548-0.184c-9.125-0.913-13.503-6.569-13.321-17.334V398.377h12.592
			c6.386,0,11.679,5.839,11.679,12.227v15.33h14.598v5.293C124.438,438.16,119.146,443.269,112.395,443.269"/>
		<path clip-path="url(#SVGID_4_)" fill="#EE2A7B" d="M215.864,483.962c0,16.607-4.196,27.557-12.773,32.85
			c-8.577,4.925-18.065,7.479-28.467,7.479c-10.038,0-18.979-2.737-27.373-8.21c-8.395-5.293-12.593-15.878-12.593-32.119v-58.028
			h24.271v62.958c0,10.765,5.476,16.058,16.425,16.058c10.948,0,16.421-5.293,16.421-16.058v-50.915
			c-0.18-8.028,3.651-12.043,11.679-12.043h12.409V483.962z"/>
		<path clip-path="url(#SVGID_4_)" fill="#EE2A7B" d="M310.319,483.962c0,16.607-4.196,27.557-12.773,32.85
			c-8.577,4.925-18.065,7.479-28.467,7.479c-10.038,0-18.979-2.737-27.373-8.21c-8.395-5.293-12.593-15.878-12.593-32.119v-58.028
			h24.271v62.958c0,10.765,5.476,16.058,16.425,16.058s16.421-5.293,16.421-16.058v-50.915c-0.18-8.028,3.651-12.043,11.679-12.043
			h12.409V483.962z"/>
		<path clip-path="url(#SVGID_4_)" fill="#EE2A7B" d="M345.176,410.239v53.47l29.93-34.311h29.198l-33.396,35.768l33.76,57.301
			h-29.198l-17.154-31.752c-3.102-5.476-6.206-8.211-9.307-8.211c-2.554,0.547-3.832,2.188-3.832,4.743v35.22h-24.271v-124.09
			h12.592C339.883,398.377,345.176,403.854,345.176,410.239"/>
		<path clip-path="url(#SVGID_4_)" fill="#EE2A7B" d="M491.165,483.962c0,16.607-4.198,27.557-12.773,32.85
			c-8.577,4.925-18.064,7.479-28.467,7.479c-10.038,0-18.979-2.737-27.372-8.21c-8.395-5.293-12.594-15.878-12.594-32.119v-58.028
			h24.271v62.958c0,10.765,5.473,16.058,16.423,16.058c10.952,0,16.423-5.293,16.423-16.058v-50.915
			c-0.183-8.028,3.652-12.043,11.68-12.043h12.409V483.962z"/>
		<path clip-path="url(#SVGID_4_)" fill="#EE2A7B" d="M526.021,410.239v112.228H501.75v-124.09h12.594
			C520.729,398.377,526.021,403.854,526.021,410.239"/>
		<g clip-path="url(#SVGID_4_)">
			<g>
				<defs>
					<rect id="SVGID_5_" x="340.608" y="183.76" width="303.795" height="268.746"/>
				</defs>
				<clipPath id="SVGID_6_">
					<use xlink:href="#SVGID_5_"  overflow="visible"/>
				</clipPath>
				<path clip-path="url(#SVGID_6_)" fill="#A7A9AC" d="M623.308,351.152l0.036-0.187l19.731-32.299l1.328-0.52l-0.842-1.696
					l-1.771-60.372l0.167-0.275l-0.178-0.107v-0.005l0.941-0.499l-1.107,0.084l-54.321-52.293l-0.507-1.024l0.655-0.344
					l-0.771,0.112l-0.491-0.99l-0.897,0.987l-76.59-11.021l0.601-0.444l-1.053,0.029l-0.546-0.642l-0.599,0.675l-0.972,0.027
					l-40.852-5.497l-0.464-1.092l-1.613,1.335l-26.81,7.228l-1.038,0.029l-0.203,0.006l-0.422,0.419l-0.121-0.016l-0.014,0.097
					l-69.023,23.554l-0.229-0.372l-0.078,0.376l-0.485-0.105l0.393,0.464l-23.842,69.059l-0.328,0.327l-0.384,0.381l0.585,0.525
					l4.385,23.767L345.544,311l0.181,0.07l103.284,64.796l0.399,0.308v-0.218l82.17,17.385l1.146,0.561l26.573,47.706l-0.739,1.766
					l1.912-0.586l14.186,8.958l0.3,0.762l0.143-0.794l9.049-7.26l0.088-0.07l0.026-0.366l0.307-0.265l-0.267-0.311l4.923-69.275
					l33.389-22.598l0.179,0.076l0.117-0.275l0.283-0.192L623.308,351.152z M577.389,435.988l-7.49,2.299l-3.663-9.292l21.667-51.784
					L577.389,435.988z M574.768,450.64l-4.305-10.921l6.621-2.032L574.768,450.64z M569.408,438.438l-8.172,2.507l4.716-11.272
					L569.408,438.438z M532.388,392.597l-78.989-38.646l86.84,14.934L532.388,392.597z M353.547,275.097l18.587-18.517l5.264,30.218
					l-19.166,14.211l-8.493-7.636L353.547,275.097z M349.298,292.978l-7.201-6.474l10.791-10.75L349.298,292.978z M466.405,191.474
					l-8.812,0.249l6.605-5.465L466.405,191.474z M466.834,192.485l2.164,5.117l-23.737,4.323l11.051-9.142L466.834,192.485z
					 M628.263,322.815l-10.858,4.251l-5.373-21.558l13.375-22.215l7.55,15.225L628.263,322.815z M633.331,299.272l8.954,18.055
					l-13.46,5.268L633.331,299.272z M544.712,366.468l45.297-8.826l-1.219,14.214L544.712,366.468z M450.784,351.945l11.942-5.721
					l77.357,20.518l-0.747,0.43L450.784,351.945z M432.995,204.68l-0.82,6.081l-19.327,15.991l-8.847-1.921l18.265-18.197
					L432.995,204.68z M422.904,205.997l11.45-11.408l-1.288,9.558L422.904,205.997z M385.511,325.106l24.415-23.387l18.347,34.836
					l-42.067-11.158L385.511,325.106z M410.311,301.35l4.421-4.234l26.433,42.859l-12.219-3.241L410.311,301.35z M412.789,227.262
					l4.495,29.956l-10.554,7.827l-19.725-23.282l16.563-16.503L412.789,227.262z M430.327,224.468l-14.937,2.172l16.481-13.636
					L430.327,224.468z M577.934,225.076l-10.869,34.461l-15.604-18.369l18.261-20.064L577.934,225.076z M570.081,220.709
					l14.127-15.524l-6.118,19.398L570.081,220.709z M406.982,266.133l14.146,16.697l0.702,4.678l-0.105,0.781l-7.441,7.126
					l-14.683-23.809L406.982,266.133z M399.062,270.731l-15.654-25.383l3.233-3.222l19.677,23.224L399.062,270.731z
					 M511.392,212.678l-25.36,3.687l21.405-24.116L511.392,212.678z M511.49,213.181l4.852,25.054l-23.332,12.207l-12.013-28.403
					l4.507-5.078L511.49,213.181z M566.684,262.003l-19.646,43.263l-15.256,7.309l-7.95-41.048l1.581-1.736L566.684,262.003z
					 M527.128,267.905l23.291-25.591l15.521,18.269L527.128,267.905z M541.916,364.913l-10.035-51.819l15.323-7.341l43.836,31.739
					l-48.488,27.833L541.916,364.913z M540.411,362.519l-18.818-44.497l9.335-4.471L540.411,362.519z M530.827,313.031l-9.434,4.52
					l-12.516-29.593l14.094-15.487L530.827,313.031z M508.22,286.401l-5.235-12.379l19.573-3.693l0.05,0.26L508.22,286.401z
					 M502.371,272.576l-9.16-21.662l23.232-12.154l5.823,30.062L502.371,272.576z M423.312,287.033l0.703-0.794l0.381,0.449
					l0.133,0.157l67.316-35.217l8.982,21.239l-77.449,14.612L423.312,287.033z M480.336,220.471l-1.101-2.6l3.912-0.568
					L480.336,220.471z M491.646,251.156l-66.991,35.046l-0.295-0.349l55.508-62.543L491.646,251.156z M420.984,281.869
					l-13.591-16.042l10.063-7.463L420.984,281.869z M418.854,257.329l7.826-5.805l-4.114,30.535L418.854,257.329z M501.439,274.313
					l5.643,13.337l-31.239,34.325l-51.081-33.195L501.439,274.313z M507.739,289.208l12.268,29.007l-28.754,13.775l-14.106-9.167
					L507.739,289.208z M520.207,318.687l18.733,44.292l-47.185-30.664L520.207,318.687z M547.714,305.49l28.284-14.974
					l14.785,46.158L547.714,305.49z M547.774,304.879l19.247-42.386l8.817,27.528L547.774,304.879z M550.458,239.989l-11.188-13.171
					l20.303-10.622l8.708,4.21L550.458,239.989z M549.418,241.134l-24.795,27.244l-1.353,0.254l-5.882-30.367l20.487-10.718
					L549.418,241.134z M517.289,237.74l-4.785-24.707l11.607-1.688l13.425,15.802L517.289,237.74z M512.406,212.53l-3.754-19.382
					l15.067,17.736L512.406,212.53z M483.677,216.708l-4.646,0.676l-1.509-3.564l25.504-18.913L483.677,216.708z M477.459,217.612
					l-6.282,0.914l5.077-3.766L477.459,217.612z M477.666,218.1l1.541,3.644l-55.371,62.388l4.566-33.883l41.906-31.077
					L477.666,218.1z M428.593,248.832l3.244-24.066l36.334-5.285L428.593,248.832z M426.871,250.108l-8.19,6.073l-4.307-28.7
					l0.259-0.213l15.624-2.273L426.871,250.108z M386.341,240.98l-20.205-23.849l36.244,7.871L386.341,240.98z M385.978,241.342
					l-3.12,3.111l-15.403-24.975L385.978,241.342z M382.483,244.824l-1.272,1.268l-12.017-22.818L382.483,244.824z M383.036,245.72
					l15.613,25.318l-3.093,2.294L381.71,247.04L383.036,245.72z M399.189,271.912l14.717,23.866l-4.34,4.158l-13.528-25.687
					L399.189,271.912z M415.109,296.752l7.547-7.229l21.085,51.135l-1.859-0.494L415.109,296.752z M443.986,341.253l2.891,7.011
					l-4.605-7.466L443.986,341.253z M445.228,341.582l10.287,2.729l-6.304,6.929L445.228,341.582z M444.983,340.989l-20.974-50.866
					l50.785,33.003l-18.892,20.758L444.983,340.989z M476.101,323.973l13.53,8.793l-26.956,12.914l-5.099-1.353L476.101,323.973z
					 M490.135,333.094l49.873,32.409l0.33,0.778l-76.902-20.398L490.135,333.094z M593.394,336.463l18.265-30.336l5.266,21.126
					L593.394,336.463z M617.298,328.754l5.267,21.126l-28.561-12.009L617.298,328.754z M592.281,336.325l-14.905-46.538
					l26.688-14.129l7.244,29.067L592.281,336.325z M604.53,275.411l13.439-7.115l6.897,13.91l-13.186,21.899L604.53,275.411z
					 M619.325,267.578l21.062-11.15l-14.58,24.218L619.325,267.578z M619.099,267.12l-4.611-9.299l25.83-1.935L619.099,267.12z
					 M617.741,267.838l-13.339,7.062l-3.994-16.026l12.427-0.93L617.741,267.838z M603.938,275.146l-26.722,14.146l-8.843-27.608
					l0.443-0.083l-0.287-0.34l31.36-2.348L603.938,275.146z M568.285,260.767l11.046-35.017l13.98,6.761l6.454,25.898
					L568.285,260.767z M579.486,225.258l6.662-21.124l0.18,0.362l6.822,27.37L579.486,225.258z M568.639,220.012l-8.503-4.112
					l23.373-12.227L568.639,220.012z M584.511,202.572l-24.947,13.051l-14.999-7.253l39.958-5.812L584.511,202.572z
					 M558.999,215.919l-20.068,10.499l-13.026-15.334l17.757-2.582L558.999,215.919z M525.512,210.623L509.8,192.127l33.038,15.976
					L525.512,210.623z M506.069,191.375l-28.957,21.475l-6.363-15.046l35.295-6.428L506.069,191.375z M475.844,213.791l-6.805,5.047
					l-37.132,5.4l1.708-12.677l10.84-8.968l24.746-4.507L475.844,213.791z M433.919,209.318l0.663-4.927l6.786-1.236
					L433.919,209.318z M402.811,224.571l-36.052-7.829l53.732-9.786L402.811,224.571z M380.831,246.471l-8.469,8.438l-6.378-36.629
					L380.831,246.471z M381.329,247.418l13.811,26.223l-17.283,12.817l-5.278-30.319L381.329,247.418z M395.622,274.558
					l13.56,25.747l-24.779,23.738l-6.349-36.456L395.622,274.558z M383.888,324.074l-24.879-22.366l18.585-13.78L383.888,324.074z
					 M428.597,337.171l4.104,7.793l-43.099-18.137L428.597,337.171z M429.27,337.349l12.283,3.259l6.538,10.601l0.116,0.28
					l-14.764-6.211L429.27,337.349z M457.188,344.755l4.776,1.267l-10.512,5.035L457.188,344.755z M544.477,365.991l47.137-27.059
					l-1.558,18.179L544.477,365.991z M592.143,338.754l29.171,12.266l-30.737,5.989L592.143,338.754z M617.777,328.567l10.141-3.968
					l-4.86,25.153L617.777,328.567z M626.345,281.733l14.509-24.099l-7.418,38.398L626.345,281.733z M614.241,257.327l-9.585-19.329
					l35.895,17.358L614.241,257.327z M612.59,257.449l-12.308,0.922l-6.373-25.57l8.494,4.107L612.59,257.449z M593.749,232.155
					l-6.362-25.525l14.646,29.53L593.749,232.155z M543.74,207.972l-34.466-16.667l74.928,10.782L543.74,207.972z M470.544,197.321
					l-2.064-4.882l34.18-0.966L470.544,197.321z M442.174,202.487l-7.52,1.369l1.414-10.5l17.749-0.502L442.174,202.487z
					 M421.13,206.32l-52.342,9.533l65.058-22.201L421.13,206.32z M371.921,255.349l-17.993,17.924l11.503-55.191L371.921,255.349z
					 M357.393,301.633l-11.088,8.223l3.193-15.321L357.393,301.633z M358.17,302.331l25.441,22.871l-0.311-0.237l-36.653-14.088
					L358.17,302.331z M433.447,346.38l14.938,28.364l-64.238-49.133L433.447,346.38z M434.19,346.693l13.847,5.834l-0.396,0.433
					l1.256,0.217v21.441L434.19,346.693z M542.627,367.759l45.252,5.53l-22.45,53.661l-22.727-57.642l0.627,0.107L542.627,367.759z
					 M589.299,371.918l1.231-14.378l31.378-6.114l-32.39,21.923l0.558-1.335L589.299,371.918z M623.609,349.591l4.871-25.212
					l13.81-5.404L623.609,349.591z M633.811,296.787l7.521-38.931l1.686,57.498L633.811,296.787z M640.187,254.611l-35.901-17.361
					l-16.319-32.907L640.187,254.611z M502.953,190.439l-34.902,0.987l-2.548-6.026L502.953,190.439z M462.242,185.883l-7.144,5.911
					l-16.517,0.468L462.242,185.883z M364.383,220.604l-11.114,53.327l-11.123,11.081L364.383,220.604z M349.057,294.138
					l-3.204,15.372l-4.036-21.882L349.057,294.138z M348.206,312.021l34.813,13.371l61.593,47.11L348.206,312.021z M449.408,375.447
					v-22.182l0.402,0.069l79.889,39.087L449.408,375.447z M533.138,393.591l8.119-24.53l0.855,0.147l23.034,58.418l-5.599,13.379
					L533.138,393.591z M569.974,439.87l4.364,11.07l-13.259-8.342L569.974,439.87z M577.555,437.976l5.664,6.563l-7.983,6.406
					L577.555,437.976z M577.902,436.031l10.641-59.499l-4.716,66.359L577.902,436.031z"/>
			</g>
		</g>
		<path clip-path="url(#SVGID_4_)" fill="#DA1C5C" d="M431.927,288.407c-0.024,5.112-4.163,9.243-9.229,9.215
			c-5.081-0.029-9.165-4.182-9.147-9.299c0.021-5.126,4.108-9.193,9.23-9.182C427.88,279.153,431.951,283.277,431.927,288.407"/>
		<path clip-path="url(#SVGID_4_)" fill="#DA1C5C" d="M574.861,261.112c-0.02,4.164-3.389,7.527-7.517,7.503
			c-4.137-0.023-7.464-3.404-7.448-7.572c0.016-4.174,3.345-7.486,7.517-7.477C571.566,253.575,574.881,256.934,574.861,261.112"/>
		<path clip-path="url(#SVGID_4_)" fill="#DA1C5C" d="M547.229,366.857c-0.016,3.215-2.615,5.812-5.803,5.794
			c-3.194-0.019-5.762-2.629-5.75-5.847c0.011-3.223,2.582-5.779,5.804-5.772C544.686,361.04,547.245,363.633,547.229,366.857"/>
		<path clip-path="url(#SVGID_4_)" fill="#DA1C5C" d="M513.457,190.834c-0.015,3.214-2.616,5.811-5.802,5.793
			c-3.196-0.019-5.764-2.629-5.751-5.846c0.012-3.223,2.582-5.781,5.803-5.773C510.913,185.015,513.473,187.609,513.457,190.834"/>
		<path clip-path="url(#SVGID_4_)" fill="#DA1C5C" d="M438.882,192.874c-0.01,1.96-1.595,3.542-3.537,3.532
			c-1.948-0.011-3.514-1.603-3.506-3.564c0.007-1.965,1.574-3.524,3.537-3.52C437.331,189.328,438.892,190.908,438.882,192.874"/>
		<path clip-path="url(#SVGID_4_)" fill="#DA1C5C" d="M595.485,337.855c-0.011,1.96-1.596,3.543-3.539,3.533
			c-1.947-0.012-3.513-1.603-3.505-3.564c0.007-1.966,1.574-3.524,3.537-3.52C593.935,334.309,595.494,335.89,595.485,337.855"/>
		<path clip-path="url(#SVGID_4_)" fill="#DA1C5C" d="M467.489,185.555c-0.007,1.662-1.353,3.004-2.999,2.995
			c-1.651-0.01-2.979-1.359-2.974-3.021c0.008-1.667,1.336-2.989,2.999-2.985C466.174,182.548,467.497,183.888,467.489,185.555"/>
		<path clip-path="url(#SVGID_4_)" fill="#DA1C5C" d="M452.139,375.663c-0.008,1.661-1.354,3.004-3,2.993
			c-1.65-0.009-2.979-1.357-2.973-3.021c0.008-1.666,1.335-2.989,3-2.984C450.824,372.655,452.146,373.996,452.139,375.663"/>
		<path clip-path="url(#SVGID_4_)" fill="#DA1C5C" d="M535.676,393.323c-0.008,1.663-1.353,3.004-3,2.995
			c-1.649-0.01-2.978-1.359-2.973-3.021c0.008-1.667,1.337-2.988,3-2.984C534.361,390.315,535.684,391.656,535.676,393.323"/>
		<path clip-path="url(#SVGID_4_)" fill="#DA1C5C" d="M626.076,350.943c-0.007,1.661-1.353,3.003-2.999,2.994
			c-1.651-0.009-2.979-1.358-2.974-3.021c0.007-1.667,1.336-2.989,2.999-2.984C624.761,347.935,626.084,349.276,626.076,350.943"/>
		<path clip-path="url(#SVGID_4_)" fill="#DA1C5C" d="M591.964,372.659c-0.01,1.661-1.354,3.005-3,2.994
			c-1.651-0.009-2.979-1.357-2.974-3.021c0.007-1.667,1.336-2.988,3-2.984C590.647,369.652,591.971,370.993,591.964,372.659"/>
		<path clip-path="url(#SVGID_4_)" fill="#DA1C5C" d="M387.323,325.175c-0.008,1.662-1.353,3.004-3,2.995
			c-1.65-0.01-2.979-1.358-2.973-3.021c0.008-1.667,1.337-2.988,3-2.984C386.009,322.168,387.331,323.508,387.323,325.175"/>
		<path clip-path="url(#SVGID_4_)" fill="#DA1C5C" d="M588.978,202.095c-0.009,1.662-1.354,3.004-3.001,2.995
			c-1.65-0.01-2.979-1.359-2.973-3.021c0.008-1.667,1.336-2.988,3-2.984C587.661,199.087,588.984,200.428,588.978,202.095"/>
		<path clip-path="url(#SVGID_4_)" fill="#DA1C5C" d="M344.339,285.387c-0.007,1.662-1.353,3.004-3,2.995
			c-1.651-0.01-2.979-1.359-2.973-3.021c0.007-1.667,1.335-2.989,3-2.984C343.023,282.38,344.347,283.72,344.339,285.387"/>
		<path clip-path="url(#SVGID_4_)" fill="#DA1C5C" d="M366.953,216.724c-0.005,0.834-0.679,1.508-1.507,1.504
			c-0.829-0.005-1.497-0.683-1.493-1.518c0.004-0.837,0.672-1.501,1.507-1.5C366.292,215.214,366.958,215.888,366.953,216.724"/>
		<path clip-path="url(#SVGID_4_)" fill="#DA1C5C" d="M347.338,310.843c-0.004,0.834-0.679,1.508-1.507,1.504
			c-0.829-0.004-1.496-0.683-1.493-1.518c0.003-0.837,0.67-1.501,1.507-1.5C346.679,309.333,347.343,310.006,347.338,310.843"/>
		<path clip-path="url(#SVGID_4_)" fill="#DA1C5C" d="M450.653,352.447c-0.005,0.834-0.681,1.508-1.507,1.504
			c-0.829-0.004-1.497-0.683-1.494-1.518c0.003-0.837,0.671-1.501,1.507-1.5C449.992,350.937,450.657,351.61,450.653,352.447"/>
		<path clip-path="url(#SVGID_4_)" fill="#DA1C5C" d="M576.361,451.576c-0.004,0.834-0.68,1.509-1.507,1.505
			c-0.829-0.004-1.496-0.684-1.493-1.519c0.004-0.837,0.671-1.501,1.508-1.499C575.701,450.065,576.365,450.74,576.361,451.576"/>
		<path clip-path="url(#SVGID_4_)" fill="#DA1C5C" d="M643.6,255.545c-0.005,1.158-0.941,2.095-2.091,2.088
			c-1.15-0.006-2.077-0.947-2.071-2.106c0.003-1.162,0.93-2.084,2.09-2.081C642.684,253.449,643.604,254.383,643.6,255.545"/>
		<path clip-path="url(#SVGID_4_)" fill="#DA1C5C" d="M561.978,442.165c-0.005,1.157-0.942,2.093-2.09,2.087
			c-1.152-0.006-2.076-0.948-2.072-2.107c0.003-1.161,0.931-2.082,2.091-2.079C561.062,440.067,561.984,441.002,561.978,442.165"/>
		<path clip-path="url(#SVGID_4_)" fill="#DA1C5C" d="M549.312,305.508c-0.005,1.158-0.942,2.095-2.092,2.088
			c-1.15-0.006-2.075-0.947-2.071-2.106c0.003-1.162,0.931-2.083,2.092-2.081C548.395,303.412,549.316,304.347,549.312,305.508"/>
		<g clip-path="url(#SVGID_4_)">
			<g>
				<defs>
					<rect id="SVGID_7_" x="131.704" y="332.453" width="177.31" height="100.98"/>
				</defs>
				<clipPath id="SVGID_8_">
					<use xlink:href="#SVGID_7_"  overflow="visible"/>
				</clipPath>
				<g clip-path="url(#SVGID_8_)">
					
						<text transform="matrix(1 0 0 1 131.7056 409.7041)" fill="#A7A9AC" font-family="'HarabaraMaisBold-HarabaraMaisBold'" font-size="91.9676">ts&apos;ak</text>
				</g>
			</g>
		</g>
	</g>
</g>
</svg>
