<?xml version="1.0" encoding="utf-8"?>
<!-- Generator: Adobe Illustrator 24.0.1, SVG Export Plug-In . SVG Version: 6.00 Build 0)  -->
<svg version="1.1" id="Capa_1" xmlns="http://www.w3.org/2000/svg" xmlns:xlink="http://www.w3.org/1999/xlink" x="0px" y="0px"
	 viewBox="0 0 444 442" style="enable-background:new 0 0 444 442;" xml:space="preserve">
<style type="text/css">
	.st0{fill:#39A4BD;}
</style>
<path class="st0" d="M227.1,2.9C110.8,2.9,16.4,97.2,16.4,213.6c0,57.8,30.6,109.4,30.6,109.4L10.2,435.1l115.4-36.9
	c0,0,42.9,26,101.5,26c116.4,0,210.7-94.3,210.7-210.7S343.5,2.9,227.1,2.9z M227.1,390.5c-54.2,0-97.5-29.3-97.5-29.3L63,383
	l21.6-64.4c0,0-34.5-47.7-34.5-105c0-97.7,79.2-177,177-177c97.7,0,177,79.2,177,177S324.9,390.5,227.1,390.5z"/>
<path class="st0" d="M146.9,121.8c0,0,5.7-3.6,8.7-3.6s16.6,0,16.6,0s4.5,0.8,6.5,5.4c2,4.6,16,37.5,17.1,40.1
	c1,2.5,3.8,8.8-0.6,14.4s-13.5,16.1-13.5,16.1s-3.6,3.2-0.5,8.4s14.1,22.2,28.5,35.1s32,22.4,40.8,25.3c8.8,2.9,10.7-1,14.1-5.3
	c3.4-4.3,13.8-17.6,13.8-17.6s3.6-5.3,10.7-2c7.1,3.2,41.6,20,41.6,20s4.2,0.7,4.4,5.4c0.2,4.7,3.1,18.7-9.4,32.2
	c-12.5,13.5-39.1,19.8-51.7,16.2c-12.6-3.5-54.3-14.4-81.4-39.8s-49.2-52-58.2-71.7c-9-19.7-8.5-31.3-8-36.8
	S129.8,132.8,146.9,121.8z"/>
</svg>
