<?xml version="1.0" encoding="utf-8"?>
<!-- Generator: Adobe Illustrator 16.0.0, SVG Export Plug-In . SVG Version: 6.00 Build 0)  -->
<!DOCTYPE svg PUBLIC "-//W3C//DTD SVG 1.1//EN" "http://www.w3.org/Graphics/SVG/1.1/DTD/svg11.dtd">
<svg version="1.1" id="Layer_1" xmlns="http://www.w3.org/2000/svg" xmlns:xlink="http://www.w3.org/1999/xlink" x="0px" y="0px"
	 width="20px" height="20px" viewBox="0 0 20 20" enable-background="new 0 0 20 20" xml:space="preserve">
<g>
	<path fill="#D70B52" d="M17.16,2.867c0.42,0.419,0.785,0.883,1.102,1.39c0.313,0.508,0.576,1.059,0.785,1.654
		c0.21,0.596,0.367,1.235,0.473,1.918c0.104,0.684,0.157,1.407,0.157,2.17v1.284c0,0.443-0.085,0.863-0.252,1.258
		c-0.168,0.395-0.396,0.734-0.687,1.023c-0.288,0.291-0.631,0.52-1.024,0.687c-0.396,0.168-0.813,0.252-1.258,0.252
		c-0.597,0-1.144-0.151-1.642-0.453c-0.5-0.302-0.888-0.7-1.164-1.194c-0.043,0.06-0.084,0.112-0.127,0.164
		c-0.041,0.049-0.088,0.101-0.137,0.15c-0.404,0.436-0.891,0.768-1.46,0.993c-0.571,0.226-1.208,0.34-1.913,0.34
		c-0.696,0-1.332-0.114-1.906-0.34c-0.574-0.228-1.062-0.558-1.465-0.993c-0.369-0.402-0.65-0.874-0.843-1.415
		c-0.193-0.54-0.29-1.126-0.29-1.756c0-0.629,0.096-1.214,0.29-1.754c0.193-0.54,0.474-1.013,0.844-1.415
		c0.403-0.436,0.891-0.768,1.465-0.994c0.575-0.227,1.21-0.34,1.906-0.34c0.663,0,1.266,0.099,1.811,0.295
		c0.545,0.197,1.016,0.493,1.41,0.887v-0.54c0-0.176,0.062-0.327,0.188-0.452c0.127-0.126,0.281-0.189,0.467-0.189
		c0.176,0,0.326,0.062,0.452,0.189c0.126,0.125,0.188,0.276,0.188,0.452v5.146c0,0.534,0.188,0.991,0.566,1.37
		c0.377,0.378,0.829,0.564,1.357,0.564c0.536,0,0.994-0.188,1.371-0.564c0.378-0.379,0.566-0.836,0.566-1.37V10
		c0-0.679-0.045-1.318-0.134-1.918c-0.088-0.6-0.222-1.16-0.401-1.679c-0.181-0.52-0.404-1-0.674-1.44
		c-0.269-0.44-0.582-0.837-0.942-1.189c-0.351-0.354-0.747-0.664-1.187-0.932c-0.441-0.268-0.922-0.492-1.441-0.673
		c-0.521-0.18-1.079-0.316-1.68-0.409c-0.6-0.092-1.238-0.138-1.917-0.138c-0.671,0-1.306,0.046-1.906,0.138
		c-0.6,0.093-1.16,0.229-1.68,0.409c-0.521,0.181-1,0.405-1.44,0.673C4.549,3.11,4.148,3.42,3.788,3.773
		C3.436,4.125,3.125,4.521,2.857,4.962c-0.269,0.44-0.493,0.92-0.673,1.44c-0.18,0.52-0.314,1.08-0.402,1.68
		C1.693,8.682,1.649,9.321,1.649,10c0,0.682,0.044,1.318,0.132,1.919c0.088,0.599,0.222,1.159,0.402,1.679
		c0.181,0.521,0.405,1,0.673,1.44s0.579,0.837,0.931,1.188c0.36,0.354,0.761,0.662,1.201,0.932c0.44,0.269,0.92,0.492,1.44,0.673
		s1.08,0.315,1.679,0.409c0.6,0.092,1.235,0.139,1.906,0.139c0.645,0,1.254-0.043,1.831-0.127c0.574-0.083,1.111-0.204,1.609-0.363
		c0.5-0.158,0.965-0.361,1.396-0.604c0.433-0.243,0.823-0.524,1.176-0.844c0.135-0.125,0.289-0.185,0.467-0.176
		c0.176,0.008,0.322,0.079,0.439,0.213c0.125,0.136,0.186,0.289,0.176,0.467c-0.008,0.177-0.078,0.322-0.213,0.439
		c-0.42,0.377-0.877,0.708-1.371,0.994c-0.496,0.285-1.03,0.521-1.604,0.71c-0.573,0.188-1.187,0.331-1.836,0.429
		c-0.651,0.097-1.341,0.145-2.07,0.145c-0.763,0-1.487-0.053-2.17-0.157C7.16,19.4,6.52,19.241,5.925,19.027
		c-0.596-0.215-1.147-0.479-1.655-0.793c-0.508-0.314-0.971-0.683-1.39-1.102c-0.419-0.42-0.786-0.882-1.101-1.39
		c-0.315-0.509-0.577-1.06-0.786-1.654c-0.21-0.596-0.369-1.233-0.478-1.919C0.408,11.486,0.354,10.766,0.354,10
		c0-0.763,0.055-1.486,0.164-2.17s0.268-1.323,0.478-1.918c0.209-0.596,0.472-1.147,0.786-1.655c0.314-0.507,0.682-0.971,1.101-1.39
		s0.883-0.786,1.39-1.101s1.059-0.579,1.655-0.793C6.522,0.76,7.162,0.601,7.845,0.496c0.684-0.105,1.407-0.157,2.17-0.157
		c0.772,0,1.497,0.052,2.176,0.157c0.679,0.105,1.318,0.264,1.918,0.478c0.601,0.214,1.152,0.479,1.66,0.793
		S16.741,2.448,17.16,2.867z M10.015,13.22c0.52,0,0.986-0.077,1.396-0.231c0.411-0.155,0.755-0.383,1.03-0.686
		c0.262-0.285,0.457-0.623,0.593-1.013c0.135-0.39,0.202-0.821,0.202-1.29s-0.067-0.899-0.202-1.289
		c-0.136-0.39-0.331-0.728-0.593-1.013c-0.275-0.302-0.619-0.531-1.03-0.686c-0.41-0.155-0.876-0.232-1.396-0.232
		c-0.512,0-0.973,0.078-1.384,0.232C8.22,7.167,7.876,7.396,7.6,7.698C7.34,7.983,7.141,8.321,7.002,8.711
		C6.864,9.101,6.794,9.531,6.794,10s0.069,0.9,0.208,1.29s0.337,0.728,0.598,1.013c0.277,0.303,0.621,0.529,1.031,0.686
		C9.042,13.143,9.503,13.22,10.015,13.22z"/>
</g>
</svg>
