<?xml version="1.0" encoding="utf-8"?>
<!-- Generator: Adobe Illustrator 16.0.0, SVG Export Plug-In . SVG Version: 6.00 Build 0)  -->
<!DOCTYPE svg PUBLIC "-//W3C//DTD SVG 1.1//EN" "http://www.w3.org/Graphics/SVG/1.1/DTD/svg11.dtd">
<svg version="1.1" id="Layer_1" xmlns="http://www.w3.org/2000/svg" xmlns:xlink="http://www.w3.org/1999/xlink" x="0px" y="0px"
	 width="20px" height="20px" viewBox="0 0 20 20" enable-background="new 0 0 20 20" xml:space="preserve">
<path fill="#E5C2BE" d="M18.5,18h-11C6.673,18,6,17.327,6,16.5c0-0.048,0.011-1.189,0.924-2.314
	c0.525-0.646,1.241-1.158,2.128-1.521c1.071-0.439,2.4-0.662,3.948-0.662s2.876,0.225,3.948,0.662
	c0.887,0.363,1.603,0.876,2.128,1.521C19.99,15.311,20,16.452,20,16.5C20,17.327,19.327,18,18.5,18z M7,16.503
	C7.001,16.777,7.225,17,7.5,17h11c0.275,0,0.499-0.223,0.5-0.497c-0.001-0.035-0.032-0.896-0.738-1.733
	c-0.975-1.158-2.794-1.769-5.262-1.769s-4.287,0.612-5.261,1.769C7.032,15.609,7.001,16.468,7,16.503z"/>
<path fill="#E5C2BE" d="M13,11c-2.206,0-4-1.794-4-4s1.794-4,4-4s4,1.794,4,4S15.206,11,13,11z M13,4c-1.654,0-3,1.346-3,3
	s1.346,3,3,3s3-1.346,3-3S14.654,4,13,4z"/>
<path fill="#E5C2BE" d="M4.5,18h-3C0.673,18,0,17.327,0,16.5c0-0.037,0.008-0.927,0.663-1.8c0.378-0.505,0.894-0.904,1.533-1.188
	C2.96,13.172,3.904,13,5.001,13c0.179,0,0.356,0.005,0.527,0.014c0.276,0.017,0.487,0.25,0.473,0.526s-0.25,0.487-0.526,0.474
	c-0.153-0.009-0.312-0.013-0.473-0.013c-3.894,0-3.997,2.379-4,2.503c0.001,0.273,0.225,0.497,0.5,0.497h3
	c0.276,0,0.5,0.224,0.5,0.5s-0.224,0.5-0.5,0.5L4.5,18z"/>
<path fill="#E5C2BE" d="M5,12c-1.654,0-3-1.346-3-3c0-1.654,1.346-3,3-3s3,1.346,3,3C8,10.654,6.654,12,5,12z M5,7
	C3.897,7,3,7.897,3,9s0.897,2,2,2s2-0.897,2-2S6.103,7,5,7z"/>
</svg>
