<?xml version="1.0" encoding="utf-8"?>
<!-- Generator: Adobe Illustrator 16.0.0, SVG Export Plug-In . SVG Version: 6.00 Build 0)  -->
<!DOCTYPE svg PUBLIC "-//W3C//DTD SVG 1.1//EN" "http://www.w3.org/Graphics/SVG/1.1/DTD/svg11.dtd">
<svg version="1.1" id="Layer_1" xmlns="http://www.w3.org/2000/svg" xmlns:xlink="http://www.w3.org/1999/xlink" x="0px" y="0px"
	 width="20px" height="20px" viewBox="0 0 20 20" enable-background="new 0 0 20 20" xml:space="preserve">
<g>
	<path d="M17.16,2.867c0.42,0.419,0.786,0.883,1.101,1.39c0.314,0.508,0.577,1.059,0.786,1.654c0.21,0.596,0.367,1.235,0.473,1.918
		c0.104,0.684,0.157,1.407,0.157,2.17v1.284c0,0.443-0.085,0.863-0.252,1.258c-0.168,0.394-0.396,0.735-0.687,1.024
		c-0.288,0.29-0.631,0.519-1.024,0.686c-0.395,0.168-0.813,0.252-1.258,0.252c-0.596,0-1.144-0.151-1.642-0.453
		c-0.5-0.302-0.887-0.7-1.164-1.194c-0.042,0.059-0.084,0.112-0.126,0.163c-0.041,0.05-0.088,0.101-0.138,0.151
		c-0.403,0.436-0.89,0.767-1.459,0.993c-0.571,0.226-1.208,0.34-1.913,0.34c-0.696,0-1.332-0.114-1.906-0.34
		c-0.574-0.227-1.062-0.558-1.465-0.993c-0.369-0.402-0.65-0.874-0.843-1.415c-0.193-0.54-0.29-1.126-0.29-1.756
		c0-0.629,0.096-1.214,0.29-1.754C5.993,7.705,6.274,7.232,6.644,6.83c0.403-0.436,0.891-0.768,1.465-0.994
		c0.575-0.227,1.21-0.34,1.906-0.34c0.663,0,1.266,0.099,1.811,0.295c0.545,0.197,1.016,0.493,1.41,0.887V6.138
		c0-0.176,0.062-0.327,0.188-0.452c0.127-0.126,0.281-0.189,0.466-0.189c0.176,0,0.327,0.062,0.453,0.189
		c0.126,0.125,0.188,0.276,0.188,0.452v5.146c0,0.535,0.188,0.992,0.566,1.37c0.377,0.378,0.83,0.565,1.358,0.565
		c0.536,0,0.994-0.188,1.371-0.565c0.378-0.378,0.566-0.835,0.566-1.37V10c0-0.679-0.044-1.318-0.133-1.918
		c-0.088-0.6-0.222-1.16-0.402-1.679c-0.18-0.52-0.404-1-0.673-1.44c-0.269-0.44-0.583-0.837-0.943-1.189
		C15.89,3.42,15.494,3.11,15.054,2.842c-0.441-0.268-0.921-0.492-1.441-0.673c-0.52-0.18-1.079-0.316-1.679-0.409
		c-0.6-0.092-1.239-0.138-1.918-0.138c-0.671,0-1.306,0.046-1.906,0.138C7.51,1.853,6.95,1.989,6.43,2.169
		c-0.521,0.181-1,0.405-1.44,0.673C4.549,3.11,4.148,3.42,3.788,3.773C3.436,4.125,3.125,4.521,2.857,4.962
		c-0.269,0.44-0.493,0.92-0.673,1.44c-0.18,0.52-0.314,1.08-0.402,1.68C1.693,8.682,1.649,9.321,1.649,10
		c0,0.681,0.044,1.319,0.132,1.919c0.088,0.599,0.222,1.159,0.402,1.679c0.181,0.521,0.405,1,0.673,1.44
		c0.268,0.441,0.579,0.837,0.931,1.188c0.36,0.354,0.761,0.663,1.201,0.932s0.92,0.493,1.44,0.673
		c0.52,0.181,1.08,0.316,1.679,0.409c0.6,0.092,1.235,0.139,1.906,0.139c0.645,0,1.255-0.043,1.831-0.127
		c0.574-0.083,1.111-0.204,1.609-0.363c0.5-0.159,0.965-0.361,1.396-0.604c0.433-0.243,0.824-0.524,1.177-0.843
		c0.134-0.126,0.289-0.185,0.466-0.176c0.176,0.008,0.322,0.079,0.439,0.213c0.126,0.135,0.186,0.289,0.176,0.466
		c-0.008,0.177-0.078,0.322-0.213,0.44c-0.42,0.377-0.877,0.708-1.371,0.994c-0.495,0.285-1.03,0.521-1.604,0.71
		c-0.574,0.189-1.187,0.331-1.836,0.429c-0.651,0.096-1.341,0.144-2.07,0.144c-0.763,0-1.487-0.052-2.17-0.157
		c-0.683-0.104-1.323-0.264-1.918-0.478c-0.596-0.215-1.147-0.479-1.655-0.793s-0.971-0.682-1.39-1.101
		c-0.419-0.42-0.786-0.882-1.101-1.39s-0.577-1.06-0.786-1.654c-0.21-0.596-0.369-1.234-0.478-1.919
		C0.408,11.486,0.354,10.765,0.354,10c0-0.763,0.055-1.486,0.164-2.17c0.109-0.684,0.268-1.323,0.478-1.918
		c0.209-0.596,0.472-1.147,0.786-1.655c0.314-0.507,0.682-0.971,1.101-1.39c0.419-0.419,0.883-0.786,1.39-1.101
		s1.059-0.579,1.655-0.793C6.522,0.76,7.162,0.601,7.845,0.496c0.684-0.105,1.407-0.157,2.17-0.157c0.772,0,1.497,0.052,2.176,0.157
		S13.51,0.76,14.11,0.974c0.6,0.214,1.152,0.479,1.66,0.793S16.741,2.448,17.16,2.867z M10.015,13.22
		c0.52,0,0.986-0.077,1.396-0.232c0.411-0.155,0.755-0.383,1.031-0.685c0.261-0.285,0.457-0.623,0.592-1.013
		c0.135-0.389,0.202-0.821,0.202-1.29s-0.067-0.899-0.202-1.289c-0.135-0.39-0.331-0.728-0.592-1.013
		c-0.276-0.302-0.62-0.531-1.031-0.686c-0.41-0.155-0.876-0.232-1.396-0.232c-0.512,0-0.973,0.078-1.384,0.232
		C8.22,7.167,7.876,7.396,7.6,7.698c-0.26,0.285-0.459,0.623-0.598,1.013C6.864,9.101,6.794,9.531,6.794,10s0.069,0.901,0.208,1.29
		c0.139,0.39,0.337,0.728,0.598,1.013c0.277,0.302,0.621,0.529,1.031,0.685C9.042,13.143,9.503,13.22,10.015,13.22z"/>
</g>
</svg>
