<?xml version="1.0" encoding="utf-8"?>
<!-- Generator: Adobe Illustrator 16.0.0, SVG Export Plug-In . SVG Version: 6.00 Build 0)  -->
<!DOCTYPE svg PUBLIC "-//W3C//DTD SVG 1.1//EN" "http://www.w3.org/Graphics/SVG/1.1/DTD/svg11.dtd">
<svg version="1.1" id="Layer_1" xmlns="http://www.w3.org/2000/svg" xmlns:xlink="http://www.w3.org/1999/xlink" x="0px" y="0px"
	 width="20px" height="20px" viewBox="0 0 20 20" enable-background="new 0 0 20 20" xml:space="preserve">
<path fill="#D70B52" d="M10,20c-0.153,0-0.298-0.07-0.393-0.191c-0.057-0.072-1.418-1.813-2.797-4.385
	c-0.812-1.513-1.46-2.999-1.925-4.416C4.298,9.221,4.001,7.536,4.001,6c0-3.308,2.692-6,6-6c3.308,0,6,2.692,6,6
	c0,1.536-0.298,3.22-0.884,5.008c-0.465,1.417-1.113,2.903-1.926,4.416c-1.379,2.571-2.739,4.312-2.796,4.385
	C10.3,19.93,10.155,20,10.002,20H10z M10,1C7.243,1,5,3.243,5,6c0,3.254,1.463,6.664,2.691,8.951C8.593,16.632,9.5,17.965,10,18.661
	c0.502-0.699,1.415-2.04,2.318-3.726C13.541,12.652,15,9.248,15,6C15,3.243,12.757,1,10,1z"/>
<path fill="#D70B52" d="M10,9C8.346,9,7,7.654,7,6s1.346-3,3-3c1.654,0,3,1.346,3,3S11.654,9,10,9z M10,4C8.897,4,8,4.897,8,6
	s0.897,2,2,2c1.104,0,2-0.897,2-2S11.104,4,10,4z"/>
</svg>
